<?xml version="1.0" encoding="utf-8"?>
<!-- Generator: Adobe Illustrator 27.9.0, SVG Export Plug-In . SVG Version: 6.00 Build 0)  -->
<svg version="1.1" id="Layer_1" xmlns="http://www.w3.org/2000/svg" xmlns:xlink="http://www.w3.org/1999/xlink" x="0px" y="0px"
	 viewBox="0 0 400 86.6" style="enable-background:new 0 0 400 86.6;" xml:space="preserve">
<style type="text/css">
	.st0{fill:#FD7525;}
	.st1{fill-rule:evenodd;clip-rule:evenodd;fill:#FD7525;}
</style>
<path class="st0" d="M318.4,8.7 M318.4,8.7c0.1-1.1-0.1-2.3-0.7-3.3"/>
<path id="path2-9" class="st1" d="M166,62.9l0-32.9h2.5c3.6,0.2,9.3,1.3,9.5,7.7l0,32.8C175.9,70.6,166.3,71.2,166,62.9L166,62.9z
	 M227.7,52.7c0.7,0.9,1.2,1.9,1.5,3c0.2,0.8,0.3,1.7,0.4,2.7c0,4.8-2.4,8.4-8.1,10.6c-2.9,1.1-7.1,1.6-9.9,1.7l-24.5,0
	c0.1-1.4,0.3-7.9,6.9-8.1h16c3.9,0,7.7-0.7,7.7-4c0-3.5-4.3-4-7.7-4h-7.1c-13.4-0.2-17.1-7.1-17.1-12c0-4.2,2.5-8.3,8.1-10.5
	c2.9-1.1,7-1.7,10.4-1.9c3.4-0.1,22.8,0,23.9,0c-0.1,1.5-0.4,7.9-7,8.1h-15.9c-3.4,0-7.7,0.5-7.7,4c0,3.3,3.7,4,7.5,4
	c0.6,0,1.3,0,1.9,0h5.8c2.1,0,3.7,0.3,5.9,0.8C222.9,48,225.9,50.3,227.7,52.7L227.7,52.7z M271.5,62.5c6.7,0.2,6.8,6.9,6.9,8.2
	h-21.2c-1.9,0-4.1-0.3-6.7-1c-4.9-1.4-8.6-3.7-11.1-6.9c-1.3-1.8-2.3-3.8-2.9-5.9c-0.5-1.9-0.7-3.9-0.7-5.9
	c0-8.6,3.6-14.6,10.7-18.1c3.7-1.8,7.3-2.7,10.9-2.7h20.9v0.3c-0.1,1.7-0.5,7.6-6.7,7.9h-13.1c-9,0.4-10.2,8-10.2,8h27.3v0.2
	c-0.1,1.7-0.5,7.6-6.7,7.9h-20.6c0,0,0.1,8.1,10.2,8.1L271.5,62.5z M333.1,30.1c3.5,0.2,9.1,1.3,9.4,7.4l0,33.2h-22.3
	c-1.9,0-4.1-0.3-6.5-1c-4.8-1.3-8.5-3.6-11-6.9c-1.4-1.8-2.4-3.9-3-6.3c-0.5-2-0.7-4-0.7-6l0-20.4l2.8,0c3.6,0.2,8.8,1.5,9,7.6
	l0,11.3c0,1.8,0.2,3.3,0.5,4.7c0.4,1.7,1.2,3.2,2.1,4.4c1.4,1.8,4.4,4.2,8.4,4.3h8.6l0-32.4L333.1,30.1z M374.2,50.4
	c2.1,0,8.6-0.4,8.6-5.8c0-0.6-0.1-1.2-0.2-1.8c-0.2-0.7-0.6-1.4-1.2-2c-1.6-1.7-3.9-2.5-7.8-2.5h-9.4l0,12H374.2z M394.3,40.4
	c0.3,1,0.4,2.1,0.4,3.4c0,6-3.1,10.2-9.4,12.7c-3.3,1.4-7.5,2-10.5,2h-10.5l0,12.1l-2.6,0c-3.6-0.2-9.2-1.4-9.4-7.7l0-32.8h22.9
	c1.9,0,5,0.3,7.4,0.8c4.6,1.1,7.9,3,10,5.6C393.3,37.8,393.9,39,394.3,40.4L394.3,40.4z M31.3,63.9c10.7,14.3,17.9,13.8,24,14.7
	c-4.3,1.8-7.9,2.6-12.8,2.6c-20.4,0-37-16.6-37-37c0-20.4,16.6-37,37-37c20,0,36.2,15.8,37,35.6C73.5,42,70.2,36.5,62.8,30
	C55.9,23.8,45,25.7,45,25.7S56,37.5,65.5,47.1c3.3,3.3,6.3,4.9,9.1,4.9c1.1,0,2.3-0.3,3.3-0.8c-1.2,2.6-2.9,5.3-5.7,5.9
	c-3.8,0.9-8.5-2-14.9-8.6c0,0-5.6-6-13-13.8c-8.5-9-20.1-5.2-20.2-5.2c0,0,6.5,6,16.1,16.9l7.1,8.1c7.5,8.6,14.1,12.5,20.4,12.1
	c1.1-0.1,2.1-0.3,3.2-0.6c-6.6,8.2-15.2,9.9-28.5-5.5c-3.6-4.1-10.8-13-11.7-14C23,37.4,13,39.9,13,39.9
	C15.3,43,17.8,45.8,31.3,63.9L31.3,63.9z M157.5,37.7l0.1,33h-37.8c-1.9,0-4.1-0.3-6.5-1c-4.8-1.3-8.5-3.6-11.1-6.9
	c-1.4-1.9-2.5-4-3.1-6.3c-0.5-2-0.8-4-0.7-6l0-20.4l0.4,0l1.5,0c3.5,0.1,9.7,1,10,7.6l0,11.4c0,1.8,0.2,3.4,0.6,4.8
	c0.4,1.4,1,2.8,1.8,4c1.8,2.6,5.9,4.1,9.2,4.5l0.5,0.1l0-32.4h2.1c3.6,0.2,9.2,1.3,9.5,7.6l0,19.5c0.1,4.4,3.8,5.1,5.4,5.2h6.4
	l0-32.4c0.1,0,0.2,0,0.3,0l1.5,0C151.1,30.1,157.3,31.1,157.5,37.7L157.5,37.7z"/>
</svg>
