<svg xmlns="http://www.w3.org/2000/svg" width="20.391" height="20.391" viewBox="0 0 20.391 20.391">
  <path id="Icon_ionic-md-help-circle" data-name="Icon ionic-md-help-circle" d="M13.57,3.375a10.2,10.2,0,1,0,10.2,10.2A10.2,10.2,0,0,0,13.57,3.375ZM14.6,19.7H12.541V17.639H14.6Zm-.01-3.088H12.551c0-3.284,3.059-3.049,3.059-5.088A2.048,2.048,0,0,0,13.57,9.477a2.069,2.069,0,0,0-2.039,2.034H9.492a4.078,4.078,0,0,1,8.156,0C17.648,14.065,14.59,14.355,14.59,16.609Z" transform="translate(-3.375 -3.375)" fill="#fd7525"/>
</svg>
