<?xml version="1.0" encoding="utf-8"?>
<!-- Generator: Adobe Illustrator 16.0.0, SVG Export Plug-In . SVG Version: 6.00 Build 0)  -->
<!DOCTYPE svg PUBLIC "-//W3C//DTD SVG 1.1//EN" "http://www.w3.org/Graphics/SVG/1.1/DTD/svg11.dtd">
<svg version="1.1" id="Layer_1" xmlns="http://www.w3.org/2000/svg" xmlns:xlink="http://www.w3.org/1999/xlink" x="0px" y="0px"
	 width="69.6px" height="69.598px" viewBox="0 0 69.6 69.598" enable-background="new 0 0 69.6 69.598" xml:space="preserve">
<path id="Subtraction_2" fill="#FD7525" d="M34.8,69.6c-4.652,0.009-9.258-0.922-13.542-2.736
	c-4.134-1.749-7.889-4.284-11.058-7.464c-3.179-3.17-5.712-6.927-7.46-11.062C0.925,44.056-0.007,39.451,0,34.8
	c-0.009-4.652,0.922-9.258,2.736-13.541C4.485,17.124,7.02,13.368,10.2,10.2c3.171-3.179,6.927-5.713,11.062-7.461
	C25.545,0.925,30.149-0.007,34.8,0c4.652-0.009,9.258,0.922,13.541,2.735c4.135,1.75,7.891,4.284,11.06,7.465
	c3.179,3.17,5.712,6.927,7.46,11.062c1.814,4.282,2.747,8.887,2.74,13.538c0.009,4.651-0.922,9.258-2.736,13.541
	c-1.749,4.135-4.284,7.89-7.464,11.059c-3.17,3.179-6.927,5.713-11.062,7.46C44.055,68.675,39.451,69.607,34.8,69.6z M18.833,44.436
	c-1.023-0.001-2.006,0.402-2.733,1.123c-0.732,0.712-1.146,1.689-1.146,2.71c0.001,1.021,0.414,2,1.147,2.711
	c0.727,0.721,1.709,1.125,2.732,1.124c2.117-0.002,3.833-1.718,3.835-3.835c-0.002-2.117-1.718-3.833-3.835-3.835V44.436z
	 M30.333,45.714c-0.705,0.001-1.276,0.572-1.276,1.278v2.555c0,0.705,0.571,1.276,1.276,1.278h23.005
	c0.705-0.002,1.277-0.573,1.278-1.278v-2.556c-0.001-0.706-0.573-1.277-1.278-1.278L30.333,45.714z M15.933,33.635
	c-0.255,0-0.499,0.102-0.679,0.282L14,35.168c-0.18,0.18-0.281,0.424-0.282,0.679c0.001,0.255,0.103,0.498,0.282,0.678l3.792,3.801
	c0.189,0.18,0.439,0.28,0.7,0.28s0.512-0.101,0.7-0.28l1.255-1.255l5.768-5.769c0.371-0.372,0.375-0.975,0.007-1.35l-1.355-1.358
	c-0.18-0.182-0.425-0.283-0.68-0.282s-0.498,0.103-0.679,0.282l-5.087,5.09l-1.812-1.765c-0.178-0.181-0.42-0.283-0.673-0.285
	L15.933,33.635z M30.333,32.935c-0.705,0.001-1.276,0.573-1.276,1.278v2.555c0,0.705,0.571,1.277,1.276,1.278h23.005
	c0.705-0.001,1.277-0.573,1.278-1.278V34.21c-0.001-0.705-0.573-1.277-1.278-1.278L30.333,32.935z M15.933,20.887
	c-0.255,0-0.499,0.102-0.679,0.282L14,22.421c-0.18,0.181-0.281,0.424-0.282,0.679c0.001,0.255,0.103,0.498,0.282,0.678l3.8,3.787
	c0.188,0.181,0.439,0.281,0.7,0.281c0.261-0.001,0.512-0.102,0.7-0.281l1.245-1.248l5.768-5.767
	c0.372-0.375,0.376-0.979,0.008-1.358l-1.358-1.317c-0.18-0.182-0.425-0.283-0.68-0.282s-0.498,0.102-0.679,0.282l-5.087,5.057
	l-1.812-1.766c-0.178-0.179-0.418-0.279-0.669-0.281L15.933,20.887z M30.333,20.155c-0.705,0.002-1.276,0.573-1.276,1.278v2.555
	c0,0.705,0.571,1.277,1.276,1.278h23.005c0.705-0.001,1.277-0.572,1.278-1.278V21.43c-0.001-0.705-0.573-1.276-1.278-1.278
	L30.333,20.155z"/>
</svg>
