<svg xmlns="http://www.w3.org/2000/svg" width="20.39" height="20.39" viewBox="0 0 20.39 20.39">
  <path id="Icon_awesome-info-circle" data-name="Icon awesome-info-circle" d="M10.758.563a10.2,10.2,0,1,0,10.2,10.2A10.2,10.2,0,0,0,10.758.563Zm0,4.522A1.727,1.727,0,1,1,9.031,6.811,1.727,1.727,0,0,1,10.758,5.085Zm2.3,10.442a.493.493,0,0,1-.493.493H8.949a.493.493,0,0,1-.493-.493V14.54a.493.493,0,0,1,.493-.493h.493V11.415H8.949a.493.493,0,0,1-.493-.493V9.935a.493.493,0,0,1,.493-.493H11.58a.493.493,0,0,1,.493.493v4.111h.493a.493.493,0,0,1,.493.493Z" transform="translate(-0.563 -0.563)" fill="#fd7525"/>
</svg>
