<svg xmlns="http://www.w3.org/2000/svg" width="20.39" height="20.39" viewBox="0 0 20.39 20.39">
  <g id="Group_123236" data-name="Group 123236" transform="translate(-30 -275)">
    <circle id="Ellipse_976" data-name="Ellipse 976" cx="10.195" cy="10.195" r="10.195" transform="translate(30 275)" fill="#fd7525"/>
    <path id="Icon_awesome-tasks" data-name="Icon awesome-tasks" d="M3.267,2.331a.281.281,0,0,0-.4,0L1.379,3.812.848,3.294a.281.281,0,0,0-.4,0l-.367.368a.281.281,0,0,0,0,.4L1.2,5.169a.3.3,0,0,0,.412,0L1.973,4.8l1.69-1.689a.283.283,0,0,0,0-.4Zm0,3.725a.281.281,0,0,0-.4,0L1.379,7.547.848,7.03a.281.281,0,0,0-.4,0L.083,7.4a.281.281,0,0,0,0,.4L1.193,8.906a.3.3,0,0,0,.412,0l.367-.367,1.69-1.69a.281.281,0,0,0,0-.4ZM1.5,10.111a1.123,1.123,0,1,0,0,2.247,1.123,1.123,0,1,0,0-2.247Zm10.109.374H4.867a.374.374,0,0,0-.374.374v.749a.374.374,0,0,0,.374.374h6.74a.374.374,0,0,0,.374-.374V10.86A.374.374,0,0,0,11.607,10.486Zm0-7.488H4.867a.374.374,0,0,0-.374.374v.749a.374.374,0,0,0,.374.374h6.74a.374.374,0,0,0,.374-.374V3.372A.374.374,0,0,0,11.607,3Zm0,3.744H4.867a.374.374,0,0,0-.374.374v.749a.374.374,0,0,0,.374.374h6.74a.374.374,0,0,0,.374-.374V7.116A.374.374,0,0,0,11.607,6.742Z" transform="translate(33.961 277.613)" fill="#092b41"/>
  </g>
</svg>
