<?xml version="1.0" encoding="utf-8"?>
<!-- Generator: Adobe Illustrator 16.0.0, SVG Export Plug-In . SVG Version: 6.00 Build 0)  -->
<!DOCTYPE svg PUBLIC "-//W3C//DTD SVG 1.1//EN" "http://www.w3.org/Graphics/SVG/1.1/DTD/svg11.dtd">
<svg version="1.1" id="Layer_1" xmlns="http://www.w3.org/2000/svg" xmlns:xlink="http://www.w3.org/1999/xlink" x="0px" y="0px"
	 width="69.6px" height="69.6px" viewBox="0 0 69.6 69.6" enable-background="new 0 0 69.6 69.6" xml:space="preserve">
<path id="Icon_material-account-circle" fill="#FD7524" d="M34.8,0C15.581,0,0,15.581,0,34.8C0,54.019,15.581,69.6,34.8,69.6
	C54.019,69.6,69.6,54.019,69.6,34.8C69.594,15.584,54.016,0.007,34.8,0z M34.8,10.44c5.767,0,10.44,4.674,10.44,10.439
	c0,5.767-4.674,10.44-10.44,10.44c-5.766,0-10.439-4.674-10.439-10.44l0,0c-0.008-5.758,4.653-10.432,10.412-10.439
	C34.781,10.44,34.791,10.44,34.8,10.44z M34.8,59.855c-8.397,0-16.237-4.207-20.88-11.205c0.101-6.925,13.92-10.718,20.88-10.718
	c6.926,0,20.775,3.793,20.881,10.718C51.038,55.648,43.198,59.855,34.8,59.855z"/>
</svg>
