<svg xmlns="http://www.w3.org/2000/svg" width="69.599" height="69.599" viewBox="0 0 69.599 69.599">
  <path id="Icon_material-account-circle" data-name="Icon material-account-circle" d="M37.8,3A34.8,34.8,0,1,0,72.6,37.8,34.812,34.812,0,0,0,37.8,3Zm0,10.44A10.44,10.44,0,1,1,27.36,23.88,10.426,10.426,0,0,1,37.8,13.44Zm0,49.415A25.057,25.057,0,0,1,16.92,51.65c.1-6.925,13.92-10.718,20.88-10.718,6.925,0,20.775,3.793,20.88,10.718A25.057,25.057,0,0,1,37.8,62.855Z" transform="translate(-3 -3)" fill="#fbfbfb"/>
</svg>
